<?xml version="1.0" encoding="UTF-8" standalone="no"?>
<!DOCTYPE svg PUBLIC "-//W3C//DTD SVG 1.1//EN" "http://www.w3.org/Graphics/SVG/1.1/DTD/svg11.dtd">
<svg width="100%" height="100%" viewBox="0 0 995 201" version="1.1" xmlns="http://www.w3.org/2000/svg" xmlns:xlink="http://www.w3.org/1999/xlink" xml:space="preserve" xmlns:serif="http://www.serif.com/" style="fill-rule:evenodd;clip-rule:evenodd;stroke-miterlimit:10;">
    <g transform="matrix(1,0,0,1,-1109.74,-1156.14)">
        <g id="Layer-1" serif:id="Layer 1" transform="matrix(4.16667,0,0,4.16667,0,0)">
            <g>
                <g transform="matrix(47.0985,0,0,47.0985,319.405,317.785)">
                    <rect x="0.057" y="-0.714" width="0.144" height="0.714" style="fill:rgb(242,116,40);fill-rule:nonzero;"/>
                </g>
                <g transform="matrix(47.0985,0,0,47.0985,331.556,317.785)">
                    <path d="M0.449,-0.714L0.05,-0.714L0.05,-0L0.459,-0L0.459,-0.118L0.194,-0.118L0.194,-0.31L0.434,-0.31L0.434,-0.428L0.194,-0.428L0.194,-0.596L0.449,-0.596L0.449,-0.714Z" style="fill:rgb(242,116,40);fill-rule:nonzero;"/>
                </g>
                <g transform="matrix(47.0985,0,0,47.0985,354.21,317.785)">
                    <path d="M0.194,-0.391L0.194,-0.608L0.254,-0.608C0.29,-0.608 0.316,-0.599 0.331,-0.58C0.346,-0.561 0.354,-0.534 0.354,-0.498C0.354,-0.461 0.345,-0.434 0.328,-0.417C0.31,-0.4 0.287,-0.391 0.258,-0.391L0.194,-0.391ZM0.05,-0.714L0.05,-0L0.194,-0L0.194,-0.285L0.271,-0.285C0.305,-0.285 0.336,-0.289 0.364,-0.298C0.392,-0.307 0.416,-0.32 0.436,-0.337C0.455,-0.354 0.47,-0.377 0.482,-0.404C0.493,-0.431 0.498,-0.463 0.498,-0.5C0.498,-0.527 0.495,-0.553 0.488,-0.579C0.481,-0.604 0.47,-0.627 0.455,-0.647C0.44,-0.667 0.42,-0.683 0.395,-0.696C0.37,-0.708 0.339,-0.714 0.302,-0.714L0.05,-0.714Z" style="fill:rgb(242,116,40);fill-rule:nonzero;"/>
                </g>
                <g transform="matrix(47.0985,0,0,47.0985,378.654,317.785)">
                    <path d="M0.424,-0.354L0.487,-0.354C0.48,-0.413 0.457,-0.458 0.419,-0.487C0.38,-0.516 0.333,-0.531 0.278,-0.531C0.239,-0.531 0.204,-0.524 0.174,-0.509C0.143,-0.494 0.118,-0.475 0.097,-0.45C0.076,-0.425 0.061,-0.397 0.05,-0.364C0.039,-0.331 0.034,-0.295 0.034,-0.258C0.034,-0.221 0.039,-0.186 0.05,-0.153C0.061,-0.12 0.076,-0.091 0.097,-0.066C0.118,-0.041 0.143,-0.022 0.174,-0.008C0.204,0.007 0.239,0.014 0.278,0.014C0.337,0.014 0.385,-0.003 0.422,-0.039C0.459,-0.074 0.482,-0.122 0.491,-0.185L0.428,-0.185C0.426,-0.164 0.421,-0.144 0.412,-0.126C0.403,-0.108 0.392,-0.093 0.379,-0.08C0.366,-0.067 0.35,-0.056 0.333,-0.049C0.316,-0.042 0.297,-0.038 0.278,-0.038C0.248,-0.038 0.222,-0.044 0.199,-0.057C0.176,-0.07 0.158,-0.086 0.143,-0.107C0.128,-0.128 0.116,-0.151 0.109,-0.178C0.101,-0.204 0.097,-0.231 0.097,-0.258C0.097,-0.285 0.101,-0.312 0.109,-0.339C0.116,-0.365 0.128,-0.388 0.143,-0.409C0.158,-0.43 0.176,-0.446 0.199,-0.459C0.222,-0.472 0.248,-0.478 0.278,-0.478C0.32,-0.478 0.353,-0.467 0.376,-0.445C0.399,-0.423 0.415,-0.393 0.424,-0.354Z" style="fill:rgb(0,180,193);fill-rule:nonzero;"/>
                </g>
                <g transform="matrix(47.0985,0,0,47.0985,403.098,317.785)">
                    <path d="M0.431,-0.294L0.097,-0.294C0.1,-0.317 0.105,-0.34 0.114,-0.363C0.122,-0.385 0.133,-0.405 0.147,-0.422C0.161,-0.439 0.178,-0.452 0.198,-0.463C0.218,-0.473 0.241,-0.478 0.267,-0.478C0.292,-0.478 0.315,-0.473 0.335,-0.463C0.355,-0.452 0.372,-0.439 0.386,-0.422C0.4,-0.405 0.411,-0.385 0.419,-0.363C0.426,-0.341 0.43,-0.318 0.431,-0.294ZM0.097,-0.241L0.494,-0.241C0.495,-0.277 0.492,-0.313 0.484,-0.348C0.476,-0.383 0.463,-0.413 0.445,-0.441C0.426,-0.467 0.402,-0.489 0.373,-0.506C0.344,-0.523 0.308,-0.531 0.267,-0.531C0.226,-0.531 0.191,-0.523 0.162,-0.508C0.132,-0.492 0.108,-0.471 0.089,-0.446C0.07,-0.42 0.056,-0.391 0.048,-0.358C0.039,-0.325 0.034,-0.292 0.034,-0.258C0.034,-0.221 0.039,-0.187 0.048,-0.154C0.056,-0.121 0.07,-0.092 0.089,-0.067C0.108,-0.042 0.132,-0.022 0.162,-0.008C0.191,0.007 0.226,0.014 0.267,0.014C0.332,0.014 0.383,-0.002 0.419,-0.034C0.454,-0.066 0.479,-0.111 0.492,-0.17L0.429,-0.17C0.419,-0.13 0.401,-0.098 0.375,-0.074C0.349,-0.05 0.313,-0.038 0.267,-0.038C0.237,-0.038 0.211,-0.044 0.19,-0.057C0.169,-0.07 0.151,-0.086 0.137,-0.105C0.123,-0.124 0.113,-0.146 0.107,-0.171C0.1,-0.195 0.097,-0.218 0.097,-0.241Z" style="fill:rgb(0,180,193);fill-rule:nonzero;"/>
                </g>
                <g transform="matrix(47.0985,0,0,47.0985,427.542,317.785)">
                    <path d="M0.059,-0.516L0.059,-0L0.122,-0L0.122,-0.301C0.123,-0.326 0.127,-0.35 0.135,-0.372C0.142,-0.393 0.153,-0.412 0.167,-0.428C0.18,-0.443 0.197,-0.456 0.217,-0.465C0.236,-0.474 0.259,-0.478 0.284,-0.478C0.309,-0.478 0.331,-0.474 0.348,-0.466C0.365,-0.458 0.378,-0.447 0.388,-0.433C0.398,-0.419 0.405,-0.403 0.409,-0.384C0.413,-0.365 0.415,-0.344 0.415,-0.322L0.415,-0L0.478,-0L0.478,-0.332C0.478,-0.363 0.475,-0.39 0.469,-0.415C0.463,-0.44 0.453,-0.46 0.438,-0.478C0.423,-0.495 0.404,-0.508 0.38,-0.517C0.355,-0.526 0.325,-0.531 0.289,-0.531C0.252,-0.531 0.219,-0.522 0.188,-0.503C0.157,-0.484 0.136,-0.458 0.124,-0.427L0.122,-0.427L0.122,-0.516L0.059,-0.516Z" style="fill:rgb(0,180,193);fill-rule:nonzero;"/>
                </g>
                <g transform="matrix(47.0985,0,0,47.0985,452.834,317.785)">
                    <path d="M0.16,-0.516L0.16,-0.671L0.097,-0.671L0.097,-0.516L0.007,-0.516L0.007,-0.463L0.097,-0.463L0.097,-0.11C0.096,-0.066 0.104,-0.036 0.121,-0.02C0.138,-0.003 0.167,0.005 0.209,0.005C0.218,0.005 0.228,0.005 0.237,0.004C0.246,0.003 0.256,0.003 0.265,0.003L0.265,-0.05C0.247,-0.048 0.229,-0.047 0.211,-0.047C0.188,-0.048 0.174,-0.055 0.169,-0.067C0.163,-0.078 0.16,-0.094 0.16,-0.115L0.16,-0.463L0.265,-0.463L0.265,-0.516L0.16,-0.516Z" style="fill:rgb(0,180,193);fill-rule:nonzero;"/>
                </g>
                <g transform="matrix(47.0985,0,0,47.0985,466.775,317.785)">
                    <path d="M0.06,-0.516L0.06,-0L0.123,-0L0.123,-0.275C0.123,-0.302 0.128,-0.328 0.137,-0.351C0.146,-0.374 0.16,-0.393 0.177,-0.41C0.194,-0.427 0.214,-0.44 0.237,-0.449C0.26,-0.458 0.286,-0.461 0.315,-0.46L0.315,-0.523C0.268,-0.525 0.228,-0.515 0.195,-0.492C0.161,-0.469 0.136,-0.437 0.12,-0.395L0.118,-0.395L0.118,-0.516L0.06,-0.516Z" style="fill:rgb(0,180,193);fill-rule:nonzero;"/>
                </g>
                <g transform="matrix(47.0985,0,0,47.0985,480.763,317.785)">
                    <path d="M0.431,-0.294L0.097,-0.294C0.1,-0.317 0.105,-0.34 0.114,-0.363C0.122,-0.385 0.133,-0.405 0.147,-0.422C0.161,-0.439 0.178,-0.452 0.198,-0.463C0.218,-0.473 0.241,-0.478 0.267,-0.478C0.292,-0.478 0.315,-0.473 0.335,-0.463C0.355,-0.452 0.372,-0.439 0.386,-0.422C0.4,-0.405 0.411,-0.385 0.419,-0.363C0.426,-0.341 0.43,-0.318 0.431,-0.294ZM0.097,-0.241L0.494,-0.241C0.495,-0.277 0.492,-0.313 0.484,-0.348C0.476,-0.383 0.463,-0.413 0.445,-0.441C0.426,-0.467 0.402,-0.489 0.373,-0.506C0.344,-0.523 0.308,-0.531 0.267,-0.531C0.226,-0.531 0.191,-0.523 0.162,-0.508C0.132,-0.492 0.108,-0.471 0.089,-0.446C0.07,-0.42 0.056,-0.391 0.048,-0.358C0.039,-0.325 0.034,-0.292 0.034,-0.258C0.034,-0.221 0.039,-0.187 0.048,-0.154C0.056,-0.121 0.07,-0.092 0.089,-0.067C0.108,-0.042 0.132,-0.022 0.162,-0.008C0.191,0.007 0.226,0.014 0.267,0.014C0.332,0.014 0.383,-0.002 0.419,-0.034C0.454,-0.066 0.479,-0.111 0.492,-0.17L0.429,-0.17C0.419,-0.13 0.401,-0.098 0.375,-0.074C0.349,-0.05 0.313,-0.038 0.267,-0.038C0.237,-0.038 0.211,-0.044 0.19,-0.057C0.169,-0.07 0.151,-0.086 0.137,-0.105C0.123,-0.124 0.113,-0.146 0.107,-0.171C0.1,-0.195 0.097,-0.218 0.097,-0.241Z" style="fill:rgb(0,180,193);fill-rule:nonzero;"/>
                </g>
            </g>
            <g transform="matrix(1,0,0,1,278.476,294.426)">
                <path d="M0,-0.026L8.903,-5.231C9.129,-5.363 9.409,-5.364 9.636,-5.232L18.611,-0.026L9.305,5.338L0,-0.026Z" style="fill:rgb(0,180,193);fill-rule:nonzero;stroke:rgb(9,179,192);stroke-width:0.07px;"/>
            </g>
            <g transform="matrix(1,0,0,1,277.134,312.719)">
                <path d="M0,-16.154L9.293,-10.753L9.293,0L0.36,-5.145C0.137,-5.273 0,-5.511 0,-5.768L0,-16.154Z" style="fill:rgb(0,180,193);fill-rule:nonzero;stroke:rgb(9,179,192);stroke-width:0.07px;"/>
            </g>
            <g transform="matrix(1,0,0,1,298.428,312.719)">
                <path d="M0,-16.154L-9.293,-10.753L-9.293,0L-0.361,-5.144C-0.138,-5.273 0,-5.511 0,-5.769L0,-16.154Z" style="fill:rgb(0,180,193);fill-rule:nonzero;stroke:rgb(9,179,192);stroke-width:0.07px;"/>
            </g>
            <g transform="matrix(1,0,0,1,273.87,286.992)">
                <path d="M0,6.573L0,19.82L-7.105,23.936L-7.105,3.042C-7.105,2.407 -6.767,1.819 -6.218,1.499L11.94,-9.092L11.94,-0.888L0.48,5.742C0.183,5.914 0,6.231 0,6.573Z" style="fill:rgb(102,100,173);fill-rule:nonzero;stroke:rgb(102,100,173);stroke-width:0.09px;"/>
            </g>
            <g transform="matrix(1,0,0,1,301.215,296.093)">
                <path d="M0,-3.357L-11.463,-9.988L-11.463,-18.193L6.689,-7.605C7.242,-7.283 7.582,-6.691 7.582,-6.051L7.582,14.836L0.477,10.72L0.477,-2.53C0.477,-2.871 0.295,-3.186 0,-3.357Z" style="fill:rgb(242,116,40);fill-rule:nonzero;stroke:rgb(240,115,39);stroke-width:0.09px;"/>
            </g>
            <g transform="matrix(1,0,0,1,295.417,322.819)">
                <path d="M0,-9.883L4.309,-12.371L11.427,-8.276L9.547,-7.191L2.148,-2.92L-3.565,0.379L-6.658,2.165C-7.215,2.486 -7.9,2.488 -8.458,2.169L-26.699,-8.255L-19.594,-12.357L-8.121,-5.746C-7.825,-5.576 -7.46,-5.576 -7.164,-5.747L0,-9.883Z" style="fill:rgb(125,192,70);fill-rule:nonzero;stroke:rgb(124,191,67);stroke-width:0.09px;"/>
            </g>
            <g transform="matrix(1,0,0,1,0,-10.058)">
                <rect x="322.089" y="294.215" width="6.782" height="33.628" style="fill:none;stroke:rgb(240,115,39);stroke-width:0.18px;"/>
            </g>
            <g transform="matrix(1,0,0,1,352.703,312.227)">
                <path d="M0,-22.512L-12.01,-22.512L-12.01,-14.6L-0.706,-14.6L-0.706,-9.042L-12.01,-9.042L-12.01,0.001L0.471,0.001L0.471,5.558L-18.792,5.558L-18.792,-28.07L0,-28.07L0,-22.512Z" style="fill:none;fill-rule:nonzero;stroke:rgb(240,115,39);stroke-width:0.18px;"/>
            </g>
            <g transform="matrix(1,0,0,1,366.361,302.572)">
                <path d="M0,-3.202C1.35,-3.202 2.441,-3.61 3.273,-4.427C4.105,-5.243 4.521,-6.515 4.521,-8.242C4.521,-9.937 4.16,-11.224 3.438,-12.104C2.715,-12.982 1.507,-13.423 -0.188,-13.423L-3.014,-13.423L-3.014,-3.202L0,-3.202ZM2.072,-18.415C3.799,-18.415 5.251,-18.125 6.429,-17.544C7.606,-16.963 8.556,-16.202 9.278,-15.26C10,-14.317 10.519,-13.242 10.833,-12.033C11.146,-10.824 11.304,-9.592 11.304,-8.336C11.304,-6.609 11.044,-5.101 10.526,-3.814C10.008,-2.527 9.286,-1.475 8.36,-0.659C7.434,0.157 6.311,0.77 4.993,1.178C3.674,1.586 2.214,1.79 0.612,1.79L-3.014,1.79L-3.014,15.213L-9.796,15.213L-9.796,-18.415L2.072,-18.415Z" style="fill:none;fill-rule:nonzero;stroke:rgb(240,115,39);stroke-width:0.18px;"/>
            </g>
            <g transform="matrix(1,0,0,1,396.363,314.393)">
                <path d="M0,-17.567C-1.1,-18.603 -2.638,-19.121 -4.616,-19.121C-6.028,-19.121 -7.27,-18.822 -8.336,-18.226C-9.404,-17.629 -10.291,-16.844 -10.998,-15.872C-11.704,-14.898 -12.238,-13.791 -12.599,-12.55C-12.96,-11.31 -13.141,-10.046 -13.141,-8.759C-13.141,-7.471 -12.96,-6.208 -12.599,-4.968C-12.238,-3.727 -11.704,-2.621 -10.998,-1.647C-10.291,-0.674 -9.404,0.112 -8.336,0.707C-7.27,1.304 -6.028,1.602 -4.616,1.602C-3.705,1.602 -2.842,1.43 -2.025,1.084C-1.209,0.739 -0.487,0.26 0.141,-0.352C0.769,-0.964 1.287,-1.695 1.696,-2.543C2.104,-3.39 2.355,-4.316 2.449,-5.321L5.417,-5.321C5.008,-2.37 3.925,-0.07 2.167,1.579C0.408,3.227 -1.853,4.051 -4.616,4.051C-6.469,4.051 -8.109,3.713 -9.538,3.038C-10.966,2.364 -12.167,1.446 -13.141,0.284C-14.114,-0.878 -14.852,-2.236 -15.354,-3.791C-15.857,-5.344 -16.107,-7.001 -16.107,-8.759C-16.107,-10.517 -15.857,-12.174 -15.354,-13.728C-14.852,-15.283 -14.114,-16.64 -13.141,-17.802C-12.167,-18.963 -10.966,-19.89 -9.538,-20.581C-8.109,-21.271 -6.469,-21.618 -4.616,-21.618C-2.01,-21.618 0.196,-20.926 2.002,-19.545C3.807,-18.163 4.882,-16.075 5.228,-13.281L2.261,-13.281C1.853,-15.101 1.099,-16.531 0,-17.567Z" style="fill:none;fill-rule:nonzero;stroke:rgb(9,179,192);stroke-width:0.18px;"/>
            </g>
            <g transform="matrix(1,0,0,1,422.809,310.532)">
                <path d="M0,-9.843C-0.361,-10.879 -0.872,-11.798 -1.531,-12.598C-2.19,-13.399 -2.991,-14.042 -3.933,-14.53C-4.875,-15.016 -5.943,-15.259 -7.136,-15.259C-8.36,-15.259 -9.443,-15.016 -10.385,-14.53C-11.328,-14.042 -12.128,-13.399 -12.788,-12.598C-13.447,-11.798 -13.973,-10.871 -14.365,-9.82C-14.758,-8.767 -15.017,-7.692 -15.143,-6.593L0.588,-6.593C0.557,-7.724 0.36,-8.807 0,-9.843ZM-14.695,-0.777C-14.397,0.37 -13.918,1.398 -13.258,2.308C-12.599,3.22 -11.768,3.973 -10.762,4.569C-9.758,5.166 -8.549,5.464 -7.136,5.464C-4.969,5.464 -3.273,4.899 -2.049,3.768C-0.824,2.638 0.023,1.131 0.494,-0.753L3.461,-0.753C2.833,2.011 1.679,4.145 0,5.652C-1.68,7.16 -4.059,7.913 -7.136,7.913C-9.051,7.913 -10.708,7.575 -12.104,6.9C-13.502,6.225 -14.641,5.3 -15.519,4.122C-16.398,2.944 -17.05,1.578 -17.474,0.024C-17.897,-1.53 -18.109,-3.17 -18.109,-4.898C-18.109,-6.499 -17.897,-8.069 -17.474,-9.608C-17.05,-11.146 -16.398,-12.52 -15.519,-13.729C-14.641,-14.937 -13.502,-15.91 -12.104,-16.649C-10.708,-17.386 -9.051,-17.756 -7.136,-17.756C-5.189,-17.756 -3.525,-17.363 -2.143,-16.578C-0.762,-15.793 0.36,-14.765 1.224,-13.493C2.087,-12.222 2.708,-10.762 3.085,-9.114C3.461,-7.465 3.618,-5.792 3.556,-4.097L-15.143,-4.097C-15.143,-3.03 -14.994,-1.922 -14.695,-0.777Z" style="fill:none;fill-rule:nonzero;stroke:rgb(9,179,192);stroke-width:0.18px;"/>
            </g>
            <g transform="matrix(1,0,0,1,433.288,317.078)">
                <path d="M0,-23.596L0,-19.405L0.094,-19.405C0.659,-20.88 1.664,-22.066 3.108,-22.96C4.552,-23.855 6.138,-24.303 7.865,-24.303C9.561,-24.303 10.981,-24.082 12.128,-23.643C13.273,-23.203 14.192,-22.583 14.883,-21.783C15.573,-20.982 16.061,-20 16.343,-18.839C16.626,-17.677 16.767,-16.373 16.767,-14.93L16.767,0.707L13.8,0.707L13.8,-14.459C13.8,-15.495 13.706,-16.46 13.518,-17.356C13.329,-18.25 12.999,-19.028 12.528,-19.687C12.058,-20.346 11.421,-20.865 10.621,-21.242C9.82,-21.617 8.823,-21.806 7.63,-21.806C6.436,-21.806 5.376,-21.594 4.451,-21.17C3.524,-20.746 2.739,-20.165 2.096,-19.428C1.452,-18.69 0.949,-17.81 0.589,-16.79C0.228,-15.77 0.031,-14.662 0,-13.47L0,0.707L-2.967,0.707L-2.967,-23.596L0,-23.596Z" style="fill:none;fill-rule:nonzero;stroke:rgb(9,179,192);stroke-width:0.18px;"/>
            </g>
            <g transform="matrix(1,0,0,1,465.314,310.719)">
                <path d="M0,-17.237L0,-14.741L-4.945,-14.741L-4.945,1.65C-4.945,2.623 -4.812,3.385 -4.545,3.934C-4.279,4.484 -3.611,4.789 -2.544,4.852C-1.696,4.852 -0.848,4.805 0,4.711L0,7.207C-0.44,7.207 -0.88,7.223 -1.319,7.254C-1.759,7.285 -2.198,7.301 -2.638,7.301C-4.616,7.301 -5.998,6.917 -6.782,6.148C-7.567,5.378 -7.944,3.957 -7.913,1.885L-7.913,-14.741L-12.151,-14.741L-12.151,-17.237L-7.913,-17.237L-7.913,-24.538L-4.945,-24.538L-4.945,-17.237L0,-17.237Z" style="fill:none;fill-rule:nonzero;stroke:rgb(9,179,192);stroke-width:0.18px;"/>
            </g>
            <g transform="matrix(1,0,0,1,472.331,317.361)">
                <path d="M0,-23.879L0,-18.18L0.094,-18.18C0.848,-20.158 2.018,-21.681 3.604,-22.749C5.188,-23.816 7.08,-24.303 9.278,-24.209L9.278,-21.241C7.928,-21.304 6.703,-21.124 5.604,-20.7C4.505,-20.276 3.556,-19.671 2.755,-18.887C1.954,-18.102 1.334,-17.167 0.895,-16.084C0.455,-15.001 0.235,-13.816 0.235,-12.528L0.235,0.424L-2.731,0.424L-2.731,-23.879L0,-23.879Z" style="fill:none;fill-rule:nonzero;stroke:rgb(9,179,192);stroke-width:0.18px;"/>
            </g>
            <g transform="matrix(1,0,0,1,500.472,310.532)">
                <path d="M0,-9.843C-0.361,-10.879 -0.871,-11.798 -1.531,-12.598C-2.19,-13.399 -2.991,-14.042 -3.933,-14.53C-4.875,-15.016 -5.942,-15.259 -7.136,-15.259C-8.36,-15.259 -9.443,-15.016 -10.386,-14.53C-11.327,-14.042 -12.128,-13.399 -12.787,-12.598C-13.447,-11.798 -13.973,-10.871 -14.365,-9.82C-14.758,-8.767 -15.018,-7.692 -15.143,-6.593L0.589,-6.593C0.557,-7.724 0.36,-8.807 0,-9.843ZM-14.695,-0.777C-14.396,0.37 -13.918,1.398 -13.259,2.308C-12.599,3.22 -11.768,3.973 -10.763,4.569C-9.758,5.166 -8.549,5.464 -7.136,5.464C-4.969,5.464 -3.273,4.899 -2.049,3.768C-0.824,2.638 0.023,1.131 0.494,-0.753L3.462,-0.753C2.833,2.011 1.679,4.145 0,5.652C-1.681,7.16 -4.059,7.913 -7.136,7.913C-9.051,7.913 -10.708,7.575 -12.104,6.9C-13.502,6.225 -14.641,5.3 -15.52,4.122C-16.398,2.944 -17.05,1.578 -17.474,0.024C-17.897,-1.53 -18.109,-3.17 -18.109,-4.898C-18.109,-6.499 -17.897,-8.069 -17.474,-9.608C-17.05,-11.146 -16.398,-12.52 -15.52,-13.729C-14.641,-14.937 -13.502,-15.91 -12.104,-16.649C-10.708,-17.386 -9.051,-17.756 -7.136,-17.756C-5.189,-17.756 -3.525,-17.363 -2.144,-16.578C-0.762,-15.793 0.36,-14.765 1.225,-13.493C2.088,-12.222 2.708,-10.762 3.085,-9.114C3.462,-7.465 3.618,-5.792 3.556,-4.097L-15.143,-4.097C-15.143,-3.03 -14.994,-1.922 -14.695,-0.777Z" style="fill:none;fill-rule:nonzero;stroke:rgb(9,179,192);stroke-width:0.18px;"/>
            </g>
        </g>
    </g>
</svg>
