<?xml version="1.0" encoding="UTF-8" standalone="no"?>
<!DOCTYPE svg PUBLIC "-//W3C//DTD SVG 1.1//EN" "http://www.w3.org/Graphics/SVG/1.1/DTD/svg11.dtd">
<svg width="100%" height="100%" viewBox="0 0 2831 947" version="1.1" xmlns="http://www.w3.org/2000/svg" xmlns:xlink="http://www.w3.org/1999/xlink" xml:space="preserve" xmlns:serif="http://www.serif.com/" style="fill-rule:evenodd;clip-rule:evenodd;stroke-miterlimit:10;">
    <g transform="matrix(1,0,0,1,-188.673,-802.337)">
        <g id="Layer-1" serif:id="Layer 1" transform="matrix(4.16667,0,0,4.16667,0,0)">
            <g>
                <g transform="matrix(111.737,0,0,111.737,284.443,344.441)">
                    <rect x="0.057" y="-0.714" width="0.144" height="0.714" style="fill:rgb(242,116,40);fill-rule:nonzero;"/>
                </g>
                <g transform="matrix(111.737,0,0,111.737,313.271,344.441)">
                    <path d="M0.449,-0.714L0.05,-0.714L0.05,-0L0.459,-0L0.459,-0.118L0.194,-0.118L0.194,-0.31L0.434,-0.31L0.434,-0.428L0.194,-0.428L0.194,-0.596L0.449,-0.596L0.449,-0.714Z" style="fill:rgb(242,116,40);fill-rule:nonzero;"/>
                </g>
                <g transform="matrix(111.737,0,0,111.737,367.016,344.441)">
                    <path d="M0.194,-0.391L0.194,-0.608L0.254,-0.608C0.29,-0.608 0.316,-0.599 0.331,-0.58C0.346,-0.561 0.354,-0.534 0.354,-0.498C0.354,-0.461 0.345,-0.434 0.328,-0.417C0.31,-0.4 0.287,-0.391 0.258,-0.391L0.194,-0.391ZM0.05,-0.714L0.05,-0L0.194,-0L0.194,-0.285L0.271,-0.285C0.305,-0.285 0.336,-0.289 0.364,-0.298C0.392,-0.307 0.416,-0.32 0.436,-0.337C0.455,-0.354 0.47,-0.377 0.482,-0.404C0.493,-0.431 0.498,-0.463 0.498,-0.5C0.498,-0.527 0.495,-0.553 0.488,-0.579C0.481,-0.604 0.47,-0.627 0.455,-0.647C0.44,-0.667 0.42,-0.683 0.395,-0.696C0.37,-0.708 0.339,-0.714 0.302,-0.714L0.05,-0.714Z" style="fill:rgb(242,116,40);fill-rule:nonzero;"/>
                </g>
                <g transform="matrix(111.737,0,0,111.737,425.007,344.441)">
                    <path d="M0.424,-0.354L0.487,-0.354C0.48,-0.413 0.457,-0.458 0.419,-0.487C0.38,-0.516 0.333,-0.531 0.278,-0.531C0.239,-0.531 0.204,-0.524 0.174,-0.509C0.143,-0.494 0.118,-0.475 0.097,-0.45C0.076,-0.425 0.061,-0.397 0.05,-0.364C0.039,-0.331 0.034,-0.295 0.034,-0.258C0.034,-0.221 0.039,-0.186 0.05,-0.153C0.061,-0.12 0.076,-0.091 0.097,-0.066C0.118,-0.041 0.143,-0.022 0.174,-0.008C0.204,0.007 0.239,0.014 0.278,0.014C0.337,0.014 0.385,-0.003 0.422,-0.039C0.459,-0.074 0.482,-0.122 0.491,-0.185L0.428,-0.185C0.426,-0.164 0.421,-0.144 0.412,-0.126C0.403,-0.108 0.392,-0.093 0.379,-0.08C0.366,-0.067 0.35,-0.056 0.333,-0.049C0.316,-0.042 0.297,-0.038 0.278,-0.038C0.248,-0.038 0.222,-0.044 0.199,-0.057C0.176,-0.07 0.158,-0.086 0.143,-0.107C0.128,-0.128 0.116,-0.151 0.109,-0.178C0.101,-0.204 0.097,-0.231 0.097,-0.258C0.097,-0.285 0.101,-0.312 0.109,-0.339C0.116,-0.365 0.128,-0.388 0.143,-0.409C0.158,-0.43 0.176,-0.446 0.199,-0.459C0.222,-0.472 0.248,-0.478 0.278,-0.478C0.32,-0.478 0.353,-0.467 0.376,-0.445C0.399,-0.423 0.415,-0.393 0.424,-0.354Z" style="fill:rgb(0,180,193);fill-rule:nonzero;"/>
                </g>
                <g transform="matrix(111.737,0,0,111.737,482.998,344.441)">
                    <path d="M0.431,-0.294L0.097,-0.294C0.1,-0.317 0.105,-0.34 0.114,-0.363C0.122,-0.385 0.133,-0.405 0.147,-0.422C0.161,-0.439 0.178,-0.452 0.198,-0.463C0.218,-0.473 0.241,-0.478 0.267,-0.478C0.292,-0.478 0.315,-0.473 0.335,-0.463C0.355,-0.452 0.372,-0.439 0.386,-0.422C0.4,-0.405 0.411,-0.385 0.419,-0.363C0.426,-0.341 0.43,-0.318 0.431,-0.294ZM0.097,-0.241L0.494,-0.241C0.495,-0.277 0.492,-0.313 0.484,-0.348C0.476,-0.383 0.463,-0.413 0.445,-0.441C0.426,-0.467 0.402,-0.489 0.373,-0.506C0.344,-0.523 0.308,-0.531 0.267,-0.531C0.226,-0.531 0.191,-0.523 0.162,-0.508C0.132,-0.492 0.108,-0.471 0.089,-0.446C0.07,-0.42 0.056,-0.391 0.048,-0.358C0.039,-0.325 0.034,-0.292 0.034,-0.258C0.034,-0.221 0.039,-0.187 0.048,-0.154C0.056,-0.121 0.07,-0.092 0.089,-0.067C0.108,-0.042 0.132,-0.022 0.162,-0.008C0.191,0.007 0.226,0.014 0.267,0.014C0.332,0.014 0.383,-0.002 0.419,-0.034C0.454,-0.066 0.479,-0.111 0.492,-0.17L0.429,-0.17C0.419,-0.13 0.401,-0.098 0.375,-0.074C0.349,-0.05 0.313,-0.038 0.267,-0.038C0.237,-0.038 0.211,-0.044 0.19,-0.057C0.169,-0.07 0.151,-0.086 0.137,-0.105C0.123,-0.124 0.113,-0.146 0.107,-0.171C0.1,-0.195 0.097,-0.218 0.097,-0.241Z" style="fill:rgb(0,180,193);fill-rule:nonzero;"/>
                </g>
                <g transform="matrix(111.737,0,0,111.737,540.99,344.441)">
                    <path d="M0.059,-0.516L0.059,-0L0.122,-0L0.122,-0.301C0.123,-0.326 0.127,-0.35 0.135,-0.372C0.142,-0.393 0.153,-0.412 0.167,-0.428C0.18,-0.443 0.197,-0.456 0.217,-0.465C0.236,-0.474 0.259,-0.478 0.284,-0.478C0.309,-0.478 0.331,-0.474 0.348,-0.466C0.365,-0.458 0.378,-0.447 0.388,-0.433C0.398,-0.419 0.405,-0.403 0.409,-0.384C0.413,-0.365 0.415,-0.344 0.415,-0.322L0.415,-0L0.478,-0L0.478,-0.332C0.478,-0.363 0.475,-0.39 0.469,-0.415C0.463,-0.44 0.453,-0.46 0.438,-0.478C0.423,-0.495 0.404,-0.508 0.38,-0.517C0.355,-0.526 0.325,-0.531 0.289,-0.531C0.252,-0.531 0.219,-0.522 0.188,-0.503C0.157,-0.484 0.136,-0.458 0.124,-0.427L0.122,-0.427L0.122,-0.516L0.059,-0.516Z" style="fill:rgb(0,180,193);fill-rule:nonzero;"/>
                </g>
                <g transform="matrix(111.737,0,0,111.737,600.992,344.441)">
                    <path d="M0.16,-0.516L0.16,-0.671L0.097,-0.671L0.097,-0.516L0.007,-0.516L0.007,-0.463L0.097,-0.463L0.097,-0.11C0.096,-0.066 0.104,-0.036 0.121,-0.02C0.138,-0.003 0.167,0.005 0.209,0.005C0.218,0.005 0.228,0.005 0.237,0.004C0.246,0.003 0.256,0.003 0.265,0.003L0.265,-0.05C0.247,-0.048 0.229,-0.047 0.211,-0.047C0.188,-0.048 0.174,-0.055 0.169,-0.067C0.163,-0.078 0.16,-0.094 0.16,-0.115L0.16,-0.463L0.265,-0.463L0.265,-0.516L0.16,-0.516Z" style="fill:rgb(0,180,193);fill-rule:nonzero;"/>
                </g>
                <g transform="matrix(111.737,0,0,111.737,634.066,344.441)">
                    <path d="M0.06,-0.516L0.06,-0L0.123,-0L0.123,-0.275C0.123,-0.302 0.128,-0.328 0.137,-0.351C0.146,-0.374 0.16,-0.393 0.177,-0.41C0.194,-0.427 0.214,-0.44 0.237,-0.449C0.26,-0.458 0.286,-0.461 0.315,-0.46L0.315,-0.523C0.268,-0.525 0.228,-0.515 0.195,-0.492C0.161,-0.469 0.136,-0.437 0.12,-0.395L0.118,-0.395L0.118,-0.516L0.06,-0.516Z" style="fill:rgb(0,180,193);fill-rule:nonzero;"/>
                </g>
                <g transform="matrix(111.737,0,0,111.737,667.251,344.441)">
                    <path d="M0.431,-0.294L0.097,-0.294C0.1,-0.317 0.105,-0.34 0.114,-0.363C0.122,-0.385 0.133,-0.405 0.147,-0.422C0.161,-0.439 0.178,-0.452 0.198,-0.463C0.218,-0.473 0.241,-0.478 0.267,-0.478C0.292,-0.478 0.315,-0.473 0.335,-0.463C0.355,-0.452 0.372,-0.439 0.386,-0.422C0.4,-0.405 0.411,-0.385 0.419,-0.363C0.426,-0.341 0.43,-0.318 0.431,-0.294ZM0.097,-0.241L0.494,-0.241C0.495,-0.277 0.492,-0.313 0.484,-0.348C0.476,-0.383 0.463,-0.413 0.445,-0.441C0.426,-0.467 0.402,-0.489 0.373,-0.506C0.344,-0.523 0.308,-0.531 0.267,-0.531C0.226,-0.531 0.191,-0.523 0.162,-0.508C0.132,-0.492 0.108,-0.471 0.089,-0.446C0.07,-0.42 0.056,-0.391 0.048,-0.358C0.039,-0.325 0.034,-0.292 0.034,-0.258C0.034,-0.221 0.039,-0.187 0.048,-0.154C0.056,-0.121 0.07,-0.092 0.089,-0.067C0.108,-0.042 0.132,-0.022 0.162,-0.008C0.191,0.007 0.226,0.014 0.267,0.014C0.332,0.014 0.383,-0.002 0.419,-0.034C0.454,-0.066 0.479,-0.111 0.492,-0.17L0.429,-0.17C0.419,-0.13 0.401,-0.098 0.375,-0.074C0.349,-0.05 0.313,-0.038 0.267,-0.038C0.237,-0.038 0.211,-0.044 0.19,-0.057C0.169,-0.07 0.151,-0.086 0.137,-0.105C0.123,-0.124 0.113,-0.146 0.107,-0.171C0.1,-0.195 0.097,-0.218 0.097,-0.241Z" style="fill:rgb(0,180,193);fill-rule:nonzero;"/>
                </g>
            </g>
            <g transform="matrix(1,0,0,1,92.4672,272)">
                <path d="M0,-0.153L51.075,-30.014C52.373,-30.773 53.979,-30.775 55.28,-30.021L106.769,-0.153L53.385,30.622L0,-0.153Z" style="fill:rgb(0,180,193);fill-rule:nonzero;stroke:rgb(9,179,192);stroke-width:0.42px;"/>
            </g>
            <g transform="matrix(1,0,0,1,90.1644,368.428)">
                <path d="M0,-92.673L53.315,-61.689L53.315,0L2.064,-29.517C0.787,-30.252 0,-31.613 0,-33.087L0,-92.673Z" style="fill:rgb(0,180,193);fill-rule:nonzero;stroke:rgb(9,179,192);stroke-width:0.42px;"/>
            </g>
            <g transform="matrix(1,0,0,1,201.539,368.428)">
                <path d="M0,-92.673L-53.315,-61.689L-53.315,0L-2.072,-29.512C-0.79,-30.25 0,-31.617 0,-33.096L0,-92.673Z" style="fill:rgb(0,180,193);fill-rule:nonzero;stroke:rgb(9,179,192);stroke-width:0.42px;"/>
            </g>
            <g transform="matrix(1,0,0,1,82.5579,239.676)">
                <path d="M0,32.541L0,98.117L-35.171,118.493L-35.171,15.06C-35.171,11.914 -33.5,9.005 -30.783,7.42L59.107,-45.01L59.107,-4.396L2.374,28.425C0.905,29.275 0,30.844 0,32.541Z" style="fill:rgb(102,100,173);fill-rule:nonzero;stroke:rgb(102,100,173);stroke-width:0.42px;"/>
            </g>
            <g transform="matrix(1,0,0,1,206.784,284.728)">
                <path d="M0,-16.619L-56.745,-49.447L-56.745,-90.061L33.112,-37.65C35.85,-36.053 37.533,-33.123 37.533,-29.954L37.533,73.442L2.362,53.066L2.362,-12.524C2.362,-14.213 1.462,-15.773 0,-16.619Z" style="fill:rgb(242,116,40);fill-rule:nonzero;stroke:rgb(240,115,39);stroke-width:0.42px;"/>
            </g>
            <g transform="matrix(1,0,0,1,183.654,405.681)">
                <path d="M0,-48.923L21.333,-61.24L56.566,-40.969L47.259,-35.596L10.636,-14.451L-17.648,1.878L-32.961,10.719C-35.716,12.31 -39.108,12.317 -41.87,10.739L-132.171,-40.865L-96.998,-61.172L-40.201,-28.446C-38.735,-27.601 -36.93,-27.602 -35.464,-28.448L0,-48.923Z" style="fill:rgb(125,192,70);fill-rule:nonzero;stroke:rgb(124,191,67);stroke-width:0.42px;"/>
            </g>
            <g transform="matrix(1,0,0,1,0,-2.898)">
                <rect x="290.812" y="267.559" width="16.09" height="79.78" style="fill:none;stroke:rgb(240,115,39);stroke-width:0.42px;"/>
            </g>
            <g transform="matrix(1,0,0,1,363.441,331.256)">
                <path d="M0,-53.41L-28.493,-53.41L-28.493,-34.638L-1.676,-34.638L-1.676,-21.453L-28.493,-21.453L-28.493,0L1.117,0L1.117,13.185L-44.583,13.185L-44.583,-66.595L0,-66.595L0,-53.41Z" style="fill:none;fill-rule:nonzero;stroke:rgb(240,115,39);stroke-width:0.42px;"/>
            </g>
            <g transform="matrix(1,0,0,1,395.843,308.35)">
                <path d="M0,-7.598C3.202,-7.598 5.791,-8.565 7.766,-10.503C9.739,-12.439 10.727,-15.456 10.727,-19.554C10.727,-23.577 9.87,-26.63 8.157,-28.716C6.442,-30.801 3.576,-31.845 -0.447,-31.845L-7.151,-31.845L-7.151,-7.598L0,-7.598ZM4.917,-43.689C9.012,-43.689 12.458,-42.999 15.252,-41.622C18.045,-40.243 20.298,-38.437 22.012,-36.203C23.725,-33.968 24.954,-31.415 25.699,-28.549C26.443,-25.681 26.817,-22.756 26.817,-19.777C26.817,-15.68 26.202,-12.104 24.973,-9.051C23.744,-5.995 22.03,-3.5 19.833,-1.564C17.635,0.374 14.973,1.826 11.844,2.794C8.715,3.762 5.251,4.246 1.453,4.246L-7.151,4.246L-7.151,36.091L-23.241,36.091L-23.241,-43.689L4.917,-43.689Z" style="fill:none;fill-rule:nonzero;stroke:rgb(240,115,39);stroke-width:0.42px;"/>
            </g>
            <g transform="matrix(1,0,0,1,467.019,336.397)">
                <path d="M0,-41.678C-2.608,-44.136 -6.258,-45.366 -10.95,-45.366C-14.303,-45.366 -17.246,-44.657 -19.777,-43.242C-22.311,-41.826 -24.415,-39.964 -26.091,-37.656C-27.767,-35.346 -29.034,-32.72 -29.89,-29.778C-30.747,-26.835 -31.175,-23.837 -31.175,-20.783C-31.175,-17.728 -30.747,-14.73 -29.89,-11.789C-29.034,-8.845 -27.767,-6.219 -26.091,-3.911C-24.415,-1.601 -22.311,0.261 -19.777,1.676C-17.246,3.092 -14.303,3.799 -10.95,3.799C-8.791,3.799 -6.743,3.39 -4.805,2.57C-2.868,1.751 -1.156,0.614 0.335,-0.839C1.824,-2.291 3.054,-4.023 4.022,-6.034C4.989,-8.046 5.587,-10.242 5.811,-12.627L12.85,-12.627C11.881,-5.624 9.311,-0.168 5.14,3.743C0.967,7.654 -4.396,9.609 -10.95,9.609C-15.347,9.609 -19.238,8.808 -22.627,7.207C-26.018,5.606 -28.867,3.427 -31.175,0.67C-33.484,-2.085 -35.236,-5.308 -36.426,-8.995C-37.619,-12.682 -38.214,-16.611 -38.214,-20.783C-38.214,-24.954 -37.619,-28.885 -36.426,-32.572C-35.236,-36.259 -33.484,-39.48 -31.175,-42.237C-28.867,-44.992 -26.018,-47.19 -22.627,-48.829C-19.238,-50.467 -15.347,-51.287 -10.95,-51.287C-4.769,-51.287 0.464,-49.648 4.749,-46.371C9.031,-43.093 11.582,-38.139 12.402,-31.51L5.363,-31.51C4.395,-35.829 2.606,-39.22 0,-41.678Z" style="fill:none;fill-rule:nonzero;stroke:rgb(9,179,192);stroke-width:0.42px;"/>
            </g>
            <g transform="matrix(1,0,0,1,529.759,327.235)">
                <path d="M0,-23.354C-0.857,-25.812 -2.067,-27.991 -3.631,-29.891C-5.195,-31.79 -7.095,-33.316 -9.33,-34.472C-11.564,-35.626 -14.098,-36.204 -16.928,-36.204C-19.833,-36.204 -22.403,-35.626 -24.638,-34.472C-26.873,-33.316 -28.772,-31.79 -30.336,-29.891C-31.9,-27.991 -33.149,-25.793 -34.08,-23.298C-35.012,-20.801 -35.626,-18.25 -35.923,-15.644L1.396,-15.644C1.321,-18.326 0.855,-20.896 0,-23.354ZM-34.861,-1.845C-34.154,0.875 -33.019,3.314 -31.454,5.474C-29.89,7.636 -27.917,9.423 -25.531,10.837C-23.148,12.253 -20.28,12.96 -16.928,12.96C-11.788,12.96 -7.766,11.62 -4.86,8.938C-1.955,6.256 0.056,2.681 1.174,-1.789L8.213,-1.789C6.722,4.767 3.984,9.832 0,13.408C-3.985,16.983 -9.629,18.771 -16.928,18.771C-21.473,18.771 -25.402,17.97 -28.716,16.369C-32.031,14.768 -34.732,12.569 -36.817,9.776C-38.903,6.982 -40.448,3.742 -41.454,0.055C-42.46,-3.632 -42.963,-7.524 -42.963,-11.622C-42.963,-15.42 -42.46,-19.145 -41.454,-22.795C-40.448,-26.444 -38.903,-29.704 -36.817,-32.572C-34.732,-35.439 -32.031,-37.749 -28.716,-39.5C-25.402,-41.249 -21.473,-42.125 -16.928,-42.125C-12.311,-42.125 -8.362,-41.193 -5.084,-39.333C-1.807,-37.469 0.855,-35.03 2.905,-32.014C4.953,-28.997 6.425,-25.533 7.319,-21.622C8.213,-17.711 8.585,-13.745 8.437,-9.722L-35.923,-9.722C-35.923,-7.189 -35.57,-4.563 -34.861,-1.845Z" style="fill:none;fill-rule:nonzero;stroke:rgb(9,179,192);stroke-width:0.42px;"/>
            </g>
            <g transform="matrix(1,0,0,1,554.62,342.765)">
                <path d="M0,-55.98L0,-46.035L0.224,-46.035C1.564,-49.536 3.947,-52.349 7.375,-54.472C10.8,-56.594 14.563,-57.656 18.66,-57.656C22.683,-57.656 26.052,-57.134 28.772,-56.092C31.49,-55.048 33.67,-53.578 35.309,-51.678C36.946,-49.778 38.103,-47.45 38.772,-44.694C39.443,-41.938 39.778,-38.846 39.778,-35.42L39.778,1.676L32.739,1.676L32.739,-34.303C32.739,-36.761 32.516,-39.052 32.068,-41.175C31.621,-43.298 30.84,-45.142 29.722,-46.706C28.604,-48.27 27.097,-49.499 25.196,-50.393C23.297,-51.287 20.932,-51.734 18.102,-51.734C15.27,-51.734 12.756,-51.231 10.56,-50.226C8.361,-49.22 6.498,-47.841 4.973,-46.091C3.444,-44.34 2.252,-42.254 1.396,-39.834C0.539,-37.413 0.073,-34.787 0,-31.957L0,1.676L-7.039,1.676L-7.039,-55.98L0,-55.98Z" style="fill:none;fill-rule:nonzero;stroke:rgb(9,179,192);stroke-width:0.42px;"/>
            </g>
            <g transform="matrix(1,0,0,1,630.6,327.681)">
                <path d="M0,-40.896L0,-34.974L-11.732,-34.974L-11.732,3.911C-11.732,6.22 -11.416,8.027 -10.782,9.33C-10.15,10.634 -8.567,11.36 -6.034,11.509C-4.022,11.509 -2.012,11.397 0,11.173L0,17.096C-1.044,17.096 -2.087,17.132 -3.129,17.207C-4.173,17.281 -5.215,17.319 -6.258,17.319C-10.95,17.319 -14.229,16.408 -16.09,14.582C-17.953,12.757 -18.847,9.386 -18.771,4.469L-18.771,-34.974L-28.828,-34.974L-28.828,-40.896L-18.771,-40.896L-18.771,-58.215L-11.732,-58.215L-11.732,-40.896L0,-40.896Z" style="fill:none;fill-rule:nonzero;stroke:rgb(9,179,192);stroke-width:0.42px;"/>
            </g>
            <g transform="matrix(1,0,0,1,647.247,343.436)">
                <path d="M0,-56.651L0,-43.131L0.224,-43.131C2.012,-47.824 4.786,-51.436 8.548,-53.969C12.309,-56.501 16.798,-57.656 22.013,-57.433L22.013,-50.394C18.809,-50.542 15.903,-50.114 13.297,-49.109C10.688,-48.103 8.437,-46.668 6.537,-44.807C4.638,-42.944 3.166,-40.729 2.123,-38.158C1.079,-35.589 0.559,-32.776 0.559,-29.722L0.559,1.005L-6.48,1.005L-6.48,-56.651L0,-56.651Z" style="fill:none;fill-rule:nonzero;stroke:rgb(9,179,192);stroke-width:0.42px;"/>
            </g>
            <g transform="matrix(1,0,0,1,714.009,327.235)">
                <path d="M0,-23.354C-0.857,-25.812 -2.067,-27.991 -3.631,-29.891C-5.195,-31.79 -7.095,-33.316 -9.33,-34.472C-11.564,-35.626 -14.098,-36.204 -16.928,-36.204C-19.833,-36.204 -22.403,-35.626 -24.638,-34.472C-26.873,-33.316 -28.772,-31.79 -30.336,-29.891C-31.9,-27.991 -33.149,-25.793 -34.08,-23.298C-35.012,-20.801 -35.626,-18.25 -35.923,-15.644L1.396,-15.644C1.321,-18.326 0.855,-20.896 0,-23.354ZM-34.861,-1.845C-34.154,0.875 -33.019,3.314 -31.454,5.474C-29.89,7.636 -27.917,9.423 -25.531,10.837C-23.148,12.253 -20.28,12.96 -16.928,12.96C-11.788,12.96 -7.766,11.62 -4.86,8.938C-1.955,6.256 0.056,2.681 1.174,-1.789L8.213,-1.789C6.722,4.767 3.984,9.832 0,13.408C-3.985,16.983 -9.629,18.771 -16.928,18.771C-21.473,18.771 -25.402,17.97 -28.716,16.369C-32.031,14.768 -34.732,12.569 -36.817,9.776C-38.903,6.982 -40.448,3.742 -41.454,0.055C-42.46,-3.632 -42.963,-7.524 -42.963,-11.622C-42.963,-15.42 -42.46,-19.145 -41.454,-22.795C-40.448,-26.444 -38.903,-29.704 -36.817,-32.572C-34.732,-35.439 -32.031,-37.749 -28.716,-39.5C-25.402,-41.249 -21.473,-42.125 -16.928,-42.125C-12.311,-42.125 -8.362,-41.193 -5.084,-39.333C-1.807,-37.469 0.855,-35.03 2.905,-32.014C4.953,-28.997 6.425,-25.533 7.319,-21.622C8.213,-17.711 8.585,-13.745 8.437,-9.722L-35.923,-9.722C-35.923,-7.189 -35.57,-4.563 -34.861,-1.845Z" style="fill:none;fill-rule:nonzero;stroke:rgb(9,179,192);stroke-width:0.42px;"/>
            </g>
        </g>
    </g>
</svg>
