<?xml version="1.0" encoding="UTF-8" standalone="no"?>
<!DOCTYPE svg PUBLIC "-//W3C//DTD SVG 1.1//EN" "http://www.w3.org/Graphics/SVG/1.1/DTD/svg11.dtd">
<svg width="100%" height="100%" viewBox="0 0 1799 339" version="1.1" xmlns="http://www.w3.org/2000/svg" xmlns:xlink="http://www.w3.org/1999/xlink" xml:space="preserve" xmlns:serif="http://www.serif.com/" style="fill-rule:evenodd;clip-rule:evenodd;stroke-linejoin:round;stroke-miterlimit:2;">
    <g transform="matrix(1,0,0,1,-1186.17,-427.756)">
        <g transform="matrix(4.16667,0,0,4.16667,0,0)">
            <g transform="matrix(111.737,0,0,111.737,278.312,182.441)">
                <rect x="0.057" y="-0.714" width="0.144" height="0.714" style="fill:rgb(242,116,40);fill-rule:nonzero;"/>
            </g>
            <g transform="matrix(111.737,0,0,111.737,307.14,182.441)">
                <path d="M0.449,-0.714L0.05,-0.714L0.05,-0L0.459,-0L0.459,-0.118L0.194,-0.118L0.194,-0.31L0.434,-0.31L0.434,-0.428L0.194,-0.428L0.194,-0.596L0.449,-0.596L0.449,-0.714Z" style="fill:rgb(242,116,40);fill-rule:nonzero;"/>
            </g>
            <g transform="matrix(111.737,0,0,111.737,360.885,182.441)">
                <path d="M0.194,-0.391L0.194,-0.608L0.254,-0.608C0.29,-0.608 0.316,-0.599 0.331,-0.58C0.346,-0.561 0.354,-0.534 0.354,-0.498C0.354,-0.461 0.345,-0.434 0.328,-0.417C0.31,-0.4 0.287,-0.391 0.258,-0.391L0.194,-0.391ZM0.05,-0.714L0.05,-0L0.194,-0L0.194,-0.285L0.271,-0.285C0.305,-0.285 0.336,-0.289 0.364,-0.298C0.392,-0.307 0.416,-0.32 0.436,-0.337C0.455,-0.354 0.47,-0.377 0.482,-0.404C0.493,-0.431 0.498,-0.463 0.498,-0.5C0.498,-0.527 0.495,-0.553 0.488,-0.579C0.481,-0.604 0.47,-0.627 0.455,-0.647C0.44,-0.667 0.42,-0.683 0.395,-0.696C0.37,-0.708 0.339,-0.714 0.302,-0.714L0.05,-0.714Z" style="fill:rgb(242,116,40);fill-rule:nonzero;"/>
            </g>
            <g transform="matrix(111.737,0,0,111.737,418.876,182.441)">
                <path d="M0.424,-0.354L0.487,-0.354C0.48,-0.413 0.457,-0.458 0.419,-0.487C0.38,-0.516 0.333,-0.531 0.278,-0.531C0.239,-0.531 0.204,-0.524 0.174,-0.509C0.143,-0.494 0.118,-0.475 0.097,-0.45C0.076,-0.425 0.061,-0.397 0.05,-0.364C0.039,-0.331 0.034,-0.295 0.034,-0.258C0.034,-0.221 0.039,-0.186 0.05,-0.153C0.061,-0.12 0.076,-0.091 0.097,-0.066C0.118,-0.041 0.143,-0.022 0.174,-0.008C0.204,0.007 0.239,0.014 0.278,0.014C0.337,0.014 0.385,-0.003 0.422,-0.039C0.459,-0.074 0.482,-0.122 0.491,-0.185L0.428,-0.185C0.426,-0.164 0.421,-0.144 0.412,-0.126C0.403,-0.108 0.392,-0.093 0.379,-0.08C0.366,-0.067 0.35,-0.056 0.333,-0.049C0.316,-0.042 0.297,-0.038 0.278,-0.038C0.248,-0.038 0.222,-0.044 0.199,-0.057C0.176,-0.07 0.158,-0.086 0.143,-0.107C0.128,-0.128 0.116,-0.151 0.109,-0.178C0.101,-0.204 0.097,-0.231 0.097,-0.258C0.097,-0.285 0.101,-0.312 0.109,-0.339C0.116,-0.365 0.128,-0.388 0.143,-0.409C0.158,-0.43 0.176,-0.446 0.199,-0.459C0.222,-0.472 0.248,-0.478 0.278,-0.478C0.32,-0.478 0.353,-0.467 0.376,-0.445C0.399,-0.423 0.415,-0.393 0.424,-0.354Z" style="fill:rgb(0,180,193);fill-rule:nonzero;"/>
            </g>
            <g transform="matrix(111.737,0,0,111.737,476.867,182.441)">
                <path d="M0.431,-0.294L0.097,-0.294C0.1,-0.317 0.105,-0.34 0.114,-0.363C0.122,-0.385 0.133,-0.405 0.147,-0.422C0.161,-0.439 0.178,-0.452 0.198,-0.463C0.218,-0.473 0.241,-0.478 0.267,-0.478C0.292,-0.478 0.315,-0.473 0.335,-0.463C0.355,-0.452 0.372,-0.439 0.386,-0.422C0.4,-0.405 0.411,-0.385 0.419,-0.363C0.426,-0.341 0.43,-0.318 0.431,-0.294ZM0.097,-0.241L0.494,-0.241C0.495,-0.277 0.492,-0.313 0.484,-0.348C0.476,-0.383 0.463,-0.413 0.445,-0.441C0.426,-0.467 0.402,-0.489 0.373,-0.506C0.344,-0.523 0.308,-0.531 0.267,-0.531C0.226,-0.531 0.191,-0.523 0.162,-0.508C0.132,-0.492 0.108,-0.471 0.089,-0.446C0.07,-0.42 0.056,-0.391 0.048,-0.358C0.039,-0.325 0.034,-0.292 0.034,-0.258C0.034,-0.221 0.039,-0.187 0.048,-0.154C0.056,-0.121 0.07,-0.092 0.089,-0.067C0.108,-0.042 0.132,-0.022 0.162,-0.008C0.191,0.007 0.226,0.014 0.267,0.014C0.332,0.014 0.383,-0.002 0.419,-0.034C0.454,-0.066 0.479,-0.111 0.492,-0.17L0.429,-0.17C0.419,-0.13 0.401,-0.098 0.375,-0.074C0.349,-0.05 0.313,-0.038 0.267,-0.038C0.237,-0.038 0.211,-0.044 0.19,-0.057C0.169,-0.07 0.151,-0.086 0.137,-0.105C0.123,-0.124 0.113,-0.146 0.107,-0.171C0.1,-0.195 0.097,-0.218 0.097,-0.241Z" style="fill:rgb(0,180,193);fill-rule:nonzero;"/>
            </g>
            <g transform="matrix(111.737,0,0,111.737,534.858,182.441)">
                <path d="M0.059,-0.516L0.059,-0L0.122,-0L0.122,-0.301C0.123,-0.326 0.127,-0.35 0.135,-0.372C0.142,-0.393 0.153,-0.412 0.167,-0.428C0.18,-0.443 0.197,-0.456 0.217,-0.465C0.236,-0.474 0.259,-0.478 0.284,-0.478C0.309,-0.478 0.331,-0.474 0.348,-0.466C0.365,-0.458 0.378,-0.447 0.388,-0.433C0.398,-0.419 0.405,-0.403 0.409,-0.384C0.413,-0.365 0.415,-0.344 0.415,-0.322L0.415,-0L0.478,-0L0.478,-0.332C0.478,-0.363 0.475,-0.39 0.469,-0.415C0.463,-0.44 0.453,-0.46 0.438,-0.478C0.423,-0.495 0.404,-0.508 0.38,-0.517C0.355,-0.526 0.325,-0.531 0.289,-0.531C0.252,-0.531 0.219,-0.522 0.188,-0.503C0.157,-0.484 0.136,-0.458 0.124,-0.427L0.122,-0.427L0.122,-0.516L0.059,-0.516Z" style="fill:rgb(0,180,193);fill-rule:nonzero;"/>
            </g>
            <g transform="matrix(111.737,0,0,111.737,594.861,182.441)">
                <path d="M0.16,-0.516L0.16,-0.671L0.097,-0.671L0.097,-0.516L0.007,-0.516L0.007,-0.463L0.097,-0.463L0.097,-0.11C0.096,-0.066 0.104,-0.036 0.121,-0.02C0.138,-0.003 0.167,0.005 0.209,0.005C0.218,0.005 0.228,0.005 0.237,0.004C0.246,0.003 0.256,0.003 0.265,0.003L0.265,-0.05C0.247,-0.048 0.229,-0.047 0.211,-0.047C0.188,-0.048 0.174,-0.055 0.169,-0.067C0.163,-0.078 0.16,-0.094 0.16,-0.115L0.16,-0.463L0.265,-0.463L0.265,-0.516L0.16,-0.516Z" style="fill:rgb(0,180,193);fill-rule:nonzero;"/>
            </g>
            <g transform="matrix(111.737,0,0,111.737,627.934,182.441)">
                <path d="M0.06,-0.516L0.06,-0L0.123,-0L0.123,-0.275C0.123,-0.302 0.128,-0.328 0.137,-0.351C0.146,-0.374 0.16,-0.393 0.177,-0.41C0.194,-0.427 0.214,-0.44 0.237,-0.449C0.26,-0.458 0.286,-0.461 0.315,-0.46L0.315,-0.523C0.268,-0.525 0.228,-0.515 0.195,-0.492C0.161,-0.469 0.136,-0.437 0.12,-0.395L0.118,-0.395L0.118,-0.516L0.06,-0.516Z" style="fill:rgb(0,180,193);fill-rule:nonzero;"/>
            </g>
            <g transform="matrix(111.737,0,0,111.737,661.12,182.441)">
                <path d="M0.431,-0.294L0.097,-0.294C0.1,-0.317 0.105,-0.34 0.114,-0.363C0.122,-0.385 0.133,-0.405 0.147,-0.422C0.161,-0.439 0.178,-0.452 0.198,-0.463C0.218,-0.473 0.241,-0.478 0.267,-0.478C0.292,-0.478 0.315,-0.473 0.335,-0.463C0.355,-0.452 0.372,-0.439 0.386,-0.422C0.4,-0.405 0.411,-0.385 0.419,-0.363C0.426,-0.341 0.43,-0.318 0.431,-0.294ZM0.097,-0.241L0.494,-0.241C0.495,-0.277 0.492,-0.313 0.484,-0.348C0.476,-0.383 0.463,-0.413 0.445,-0.441C0.426,-0.467 0.402,-0.489 0.373,-0.506C0.344,-0.523 0.308,-0.531 0.267,-0.531C0.226,-0.531 0.191,-0.523 0.162,-0.508C0.132,-0.492 0.108,-0.471 0.089,-0.446C0.07,-0.42 0.056,-0.391 0.048,-0.358C0.039,-0.325 0.034,-0.292 0.034,-0.258C0.034,-0.221 0.039,-0.187 0.048,-0.154C0.056,-0.121 0.07,-0.092 0.089,-0.067C0.108,-0.042 0.132,-0.022 0.162,-0.008C0.191,0.007 0.226,0.014 0.267,0.014C0.332,0.014 0.383,-0.002 0.419,-0.034C0.454,-0.066 0.479,-0.111 0.492,-0.17L0.429,-0.17C0.419,-0.13 0.401,-0.098 0.375,-0.074C0.349,-0.05 0.313,-0.038 0.267,-0.038C0.237,-0.038 0.211,-0.044 0.19,-0.057C0.169,-0.07 0.151,-0.086 0.137,-0.105C0.123,-0.124 0.113,-0.146 0.107,-0.171C0.1,-0.195 0.097,-0.218 0.097,-0.241Z" style="fill:rgb(0,180,193);fill-rule:nonzero;"/>
            </g>
        </g>
    </g>
</svg>
